<?xml version="1.0" encoding="iso-8859-1"?>
<!-- Generator: Adobe Illustrator 19.0.0, SVG Export Plug-In . SVG Version: 6.00 Build 0)  -->
<svg version="1.1" id="Layer_1" xmlns="http://www.w3.org/2000/svg" xmlns:xlink="http://www.w3.org/1999/xlink" x="0px" y="0px"
	 viewBox="0 0 512 512" style="enable-background:new 0 0 512 512;" xml:space="preserve">
<g>
	<polygon style="fill:#F6BB42;" points="401.344,125.344 339.344,111.344 126.672,213.344 170.672,228.016 189.336,301.344 
		438,194.672 	"/>
	<polygon style="fill:#F6BB42;" points="465.344,220.344 403.344,206.344 190.672,308.344 234.672,323.016 253.336,396.344 
		502,289.672 	"/>
	<polygon style="fill:#F6BB42;" points="334.344,181.344 272.344,167.344 59.672,269.344 103.672,284.016 122.336,357.344 
		371,250.672 	"/>
</g>
<g>
	<polygon style="fill:#FFCE54;" points="111,288 45,273.5 14.5,332.5 120,357.344 	"/>
	<polygon style="fill:#FFCE54;" points="238,322.672 172,308.172 141.5,367.172 247,392.016 	"/>
	<polygon style="fill:#FFCE54;" points="173.336,232 107.336,217.5 76.836,276.5 182.336,301.344 	"/>
</g>
<path d="M476.062,211.469L446.141,204l2.953-1.328l-35.922-81.969l-71.859-17.953L99.914,208.281l-17.383,34.766l-45.492,19.891
	L0,337.031l125.781,36.125l0,0l125.781,36.094L512,293.438L476.062,211.469z M483.938,282.578L257.266,383.375l-11.57-57.844
	l215.164-95.625L483.938,282.578z M427.594,221.344L231.36,308.563L218.977,305l195.508-86.938L427.594,221.344z M131.484,347.266
	l-9.586-47.953l35.664,10.25l-16.781,33.562L131.484,347.266z M421.031,191.812L194.359,292.609l-11.57-57.844l215.164-95.641
	L421.031,191.812z M343.188,125.188l21.5,5.375l-196.234,87.219l-22.359-6.406L343.188,125.188z M115.516,224.781l46.172,13.266
	l10.719,53.578l-62.422-17.906l0.023-0.578l-2.266-0.078l-14.312-4.109L115.516,224.781z M52.641,279.438l46.172,13.266
	l10.719,53.578l-78.969-22.656L52.641,279.438z M178.414,315.562l46.18,13.25l10.719,53.594l-78.977-22.688L178.414,315.562z"/>
<g>
</g>
<g>
</g>
<g>
</g>
<g>
</g>
<g>
</g>
<g>
</g>
<g>
</g>
<g>
</g>
<g>
</g>
<g>
</g>
<g>
</g>
<g>
</g>
<g>
</g>
<g>
</g>
<g>
</g>
</svg>
